 <svg xmlns="http://www.w3.org/2000/svg" viewBox="0 0 48 48"><path fill="#EA4335" d="M24 9.5c3.54 0 6.71 1.22 9.21               │
 │   3.6l6.62-6.62C34.14 2.9 29.38 0 24 0 14.62 0 6.51 5.38 2.56 13.22l7.98 6.19C13.46 12.92 18.2 9.5 24 9.5z"/><path fil            │
 │   "#4285F4" d="M46.98 24.5c0-1.57-.15-3.09-.4-4.58H24v9.19h12.64c-.67 3.6-2.85 6.69-5.99 8.72l7.75 6c4.51-4.4 7.12-10.            │
 │   7.12-18.33z"/><path fill="#FBBC04" d="M9.5 28.5c-.71-2.14-1.11-4.4-1.11-6.9s.4-4.76 1.11-6.9L2.56 5.38C.92 8.62 0               │
 │   12.29 0 16c0 3.71.92 7.38 2.56 10.62l6.94-5.4z"/><path fill="#34A853" d="M24 48c6.48 0 11.93-2.13                               │
 │   15.96-5.77l-7.75-6c-2.15 1.45-4.9 2.32-8.21 2.32-5.79 0-10.71-3.91-12.46-9.19l-7.98 6.19C6.51 42.62 14.62 48 24 48z"            │
 │   </svg> 
 